<svg id="Слой_1" data-name="Слой 1" xmlns="http://www.w3.org/2000/svg" viewBox="0 0 163 49"><path d="M0,12C0,8.27,0,6.41.61,4.94A8,8,0,0,1,4.94.61C6.41,0,8.27,0,12,0H150c3.73,0,5.59,0,7.06.61a8,8,0,0,1,4.33,4.33C162,6.41,162,8.27,162,12V36c0,3.73,0,5.59-.61,7.06a8,8,0,0,1-4.33,4.33c-1.47.61-3.33.61-7.06.61H12c-3.73,0-5.59,0-7.06-.61A8,8,0,0,1,.61,43.06C0,41.59,0,39.73,0,36Z" transform="translate(0.5 0.5)" fill="#fff"/><path d="M106.83,23v2.75h-1.72v1.8h1.72v6.13c0,2.09,1,2.93,3.33,2.93a6.82,6.82,0,0,0,1.16-.11V34.76a6.91,6.91,0,0,1-.81.05c-1.07,0-1.54-.5-1.54-1.64V27.59h2.35v-1.8H109V23Z" transform="translate(0.5 0.5)" fill="#45484f"/><path d="M117.39,36.8c3.17,0,5.11-2.12,5.11-5.64s-2-5.63-5.11-5.63-5.12,2.13-5.12,5.63S114.21,36.8,117.39,36.8Zm0-1.91c-1.86,0-2.91-1.36-2.91-3.73s1-3.73,2.91-3.73,2.91,1.38,2.91,3.73S119.24,34.89,117.39,34.89Z" transform="translate(0.5 0.5)" fill="#45484f"/><path d="M124.16,36.59h2.14V30.18a2.55,2.55,0,0,1,2.77-2.55,5.91,5.91,0,0,1,1.2.13V25.65a4.54,4.54,0,0,0-1-.09,3,3,0,0,0-2.93,1.84h-.16V25.74h-2.06Z" transform="translate(0.5 0.5)" fill="#45484f"/><path d="M135.58,27.35a2.62,2.62,0,0,1,2.67,2.81h-5.48A2.78,2.78,0,0,1,135.58,27.35Zm2.66,6.31A2.58,2.58,0,0,1,135.66,35c-1.71,0-2.82-1.2-2.89-3.1v-.12h7.66V31c0-3.41-1.82-5.47-4.84-5.47s-5,2.2-5,5.67,1.91,5.6,5,5.6c2.48,0,4.22-1.2,4.7-3.14Z" transform="translate(0.5 0.5)" fill="#45484f"/><path d="M92.79,32.58C93,35.25,95.17,37,98.48,37c3.53,0,5.74-1.79,5.74-4.64,0-2.24-1.26-3.48-4.32-4.19l-1.64-.4c-1.94-.45-2.73-1.06-2.73-2.13,0-1.34,1.22-2.22,3-2.22s2.93.86,3.15,2.23H104c-.14-2.51-2.34-4.27-5.37-4.27-3.25,0-5.42,1.76-5.42,4.42,0,2.19,1.23,3.49,3.92,4.12l1.92.46c2,.47,2.84,1.15,2.84,2.28,0,1.32-1.36,2.28-3.22,2.28s-3.38-.89-3.57-2.31Z" transform="translate(0.5 0.5)" fill="#45484f"/><path d="M70.6,25.56a3.76,3.76,0,0,0-3.4,2H67V25.74H65V40.19h2.15V34.94h.16a3.55,3.55,0,0,0,3.34,1.83c2.74,0,4.48-2.16,4.48-5.61S73.36,25.56,70.6,25.56ZM70,34.84c-1.79,0-2.91-1.41-2.91-3.67S68.2,27.48,70,27.48s2.9,1.39,2.9,3.68S71.82,34.84,70,34.84Z" transform="translate(0.5 0.5)" fill="#45484f"/><path d="M82.6,25.56a3.78,3.78,0,0,0-3.41,2H79V25.74H77V40.19h2.14V34.94h.17a3.54,3.54,0,0,0,3.34,1.83c2.74,0,4.48-2.16,4.48-5.61S85.36,25.56,82.6,25.56ZM82,34.84c-1.79,0-2.92-1.41-2.92-3.67S80.2,27.48,82,27.48s2.9,1.39,2.9,3.68S83.81,34.84,82,34.84Z" transform="translate(0.5 0.5)" fill="#45484f"/><path d="M61.13,36.59h2.46l-5.38-14.9H55.72l-5.38,14.9h2.38l1.37-4h5.68ZM56.85,24.4H57l2.16,6.29h-4.5Z" transform="translate(0.5 0.5)" fill="#45484f"/><path d="M38.72,24.36a6,6,0,0,1,2.83-5,6.15,6.15,0,0,0-4.79-2.59c-2-.21-4,1.21-5,1.21s-2.63-1.19-4.33-1.15a6.43,6.43,0,0,0-5.37,3.27c-2.32,4-.59,9.92,1.63,13.17,1.11,1.59,2.41,3.37,4.11,3.3s2.29-1.06,4.3-1.06,2.57,1.06,4.31,1,2.91-1.59,4-3.2a13.1,13.1,0,0,0,1.83-3.71A5.81,5.81,0,0,1,38.72,24.36Z" transform="translate(0.5 0.5)" fill="#45484f"/><path d="M35.44,14.65a5.8,5.8,0,0,0,1.34-4.19,6,6,0,0,0-3.85,2,5.63,5.63,0,0,0-1.37,4A5,5,0,0,0,35.44,14.65Z" transform="translate(0.5 0.5)" fill="#45484f"/><path d="M51.87,18V9.47h2.52a4,4,0,0,1,2,.5,3.47,3.47,0,0,1,1.36,1.43,4.57,4.57,0,0,1,.48,2.12V14a4.52,4.52,0,0,1-.48,2.13,3.38,3.38,0,0,1-1.38,1.42,4.18,4.18,0,0,1-2,.5Zm1.48-7.34v6.16h1a2.21,2.21,0,0,0,1.78-.73,3.14,3.14,0,0,0,.64-2.1v-.47a3.25,3.25,0,0,0-.6-2.12,2.14,2.14,0,0,0-1.75-.74Z" transform="translate(0.5 0.5)" fill="#45484f"/><path d="M59.3,14.77a3.76,3.76,0,0,1,.37-1.67,2.65,2.65,0,0,1,1-1.15,2.93,2.93,0,0,1,1.54-.41,2.79,2.79,0,0,1,2.08.83,3.24,3.24,0,0,1,.86,2.19v.33a3.77,3.77,0,0,1-.36,1.68,2.67,2.67,0,0,1-1,1.14,2.9,2.9,0,0,1-1.54.41,2.77,2.77,0,0,1-2.15-.89,3.44,3.44,0,0,1-.81-2.39Zm1.43.12a2.56,2.56,0,0,0,.4,1.54,1.42,1.42,0,0,0,2.25,0,2.83,2.83,0,0,0,.4-1.65,2.47,2.47,0,0,0-.42-1.52,1.28,1.28,0,0,0-1.11-.56,1.3,1.3,0,0,0-1.11.55A2.72,2.72,0,0,0,60.73,14.89Z" transform="translate(0.5 0.5)" fill="#45484f"/><path d="M72,16l1-4.38h1.39L72.64,18H71.47l-1.36-4.35L68.77,18H67.6l-1.73-6.34h1.39l1,4.33,1.3-4.33h1.07Z" transform="translate(0.5 0.5)" fill="#45484f"/><path d="M76.64,11.66l0,.73a2.31,2.31,0,0,1,1.85-.85c1.32,0,2,.76,2,2.27V18H79.12V13.89a1.31,1.31,0,0,0-.26-.89,1.12,1.12,0,0,0-.85-.29,1.38,1.38,0,0,0-1.29.78V18H75.3V11.66Z" transform="translate(0.5 0.5)" fill="#45484f"/><path d="M83.51,18H82.09V9h1.42Z" transform="translate(0.5 0.5)" fill="#45484f"/><path d="M84.8,14.77a3.76,3.76,0,0,1,.37-1.67,2.65,2.65,0,0,1,1-1.15,2.93,2.93,0,0,1,1.54-.41,2.79,2.79,0,0,1,2.08.83,3.24,3.24,0,0,1,.86,2.19v.33a3.77,3.77,0,0,1-.36,1.68,2.67,2.67,0,0,1-1,1.14,2.9,2.9,0,0,1-1.54.41,2.77,2.77,0,0,1-2.15-.89,3.44,3.44,0,0,1-.81-2.39Zm1.43.12a2.56,2.56,0,0,0,.4,1.54,1.42,1.42,0,0,0,2.25,0,2.83,2.83,0,0,0,.4-1.65,2.47,2.47,0,0,0-.42-1.52,1.28,1.28,0,0,0-1.11-.56,1.3,1.3,0,0,0-1.11.55A2.72,2.72,0,0,0,86.23,14.89Z" transform="translate(0.5 0.5)" fill="#45484f"/><path d="M95.69,18a2.08,2.08,0,0,1-.16-.59,2.4,2.4,0,0,1-3.23.16,1.74,1.74,0,0,1-.6-1.35,1.8,1.8,0,0,1,.75-1.55,3.66,3.66,0,0,1,2.16-.54h.87v-.42a1.05,1.05,0,0,0-.28-.78,1.07,1.07,0,0,0-.83-.3,1.27,1.27,0,0,0-.8.24.74.74,0,0,0-.31.62H91.84a1.55,1.55,0,0,1,.34-1,2.22,2.22,0,0,1,.94-.72,3.36,3.36,0,0,1,1.33-.26,2.61,2.61,0,0,1,1.77.57,2,2,0,0,1,.68,1.57v2.86a3.22,3.22,0,0,0,.24,1.36V18Zm-1.56-1a1.57,1.57,0,0,0,.79-.2,1.41,1.41,0,0,0,.56-.55V15h-.77a2.13,2.13,0,0,0-1.19.28.9.9,0,0,0-.4.78.83.83,0,0,0,.27.65A1.1,1.1,0,0,0,94.13,17Z" transform="translate(0.5 0.5)" fill="#45484f"/><path d="M98.13,14.78a3.73,3.73,0,0,1,.68-2.35,2.18,2.18,0,0,1,1.82-.89,2.07,2.07,0,0,1,1.63.71V9h1.42v9h-1.29l-.07-.66a2.08,2.08,0,0,1-1.7.78,2.18,2.18,0,0,1-1.81-.9A4,4,0,0,1,98.13,14.78Zm1.42.13a2.74,2.74,0,0,0,.37,1.51A1.22,1.22,0,0,0,101,17a1.35,1.35,0,0,0,1.28-.78V13.47a1.33,1.33,0,0,0-1.27-.76,1.2,1.2,0,0,0-1.06.55A2.91,2.91,0,0,0,99.55,14.91Z" transform="translate(0.5 0.5)" fill="#45484f"/><path d="M107.89,14.77a3.63,3.63,0,0,1,.37-1.67,2.59,2.59,0,0,1,1-1.15,2.87,2.87,0,0,1,1.53-.41,2.76,2.76,0,0,1,2.08.83,3.2,3.2,0,0,1,.87,2.19v.33a3.77,3.77,0,0,1-.36,1.68,2.65,2.65,0,0,1-1,1.14,2.94,2.94,0,0,1-1.55.41,2.78,2.78,0,0,1-2.15-.89,3.49,3.49,0,0,1-.8-2.39Zm1.42.12a2.56,2.56,0,0,0,.41,1.54,1.41,1.41,0,0,0,2.24,0,2.83,2.83,0,0,0,.41-1.65,2.47,2.47,0,0,0-.42-1.52,1.3,1.3,0,0,0-1.12-.56,1.32,1.32,0,0,0-1.11.55A2.79,2.79,0,0,0,109.31,14.89Z" transform="translate(0.5 0.5)" fill="#45484f"/><path d="M116.31,11.66l0,.73a2.3,2.3,0,0,1,1.85-.85c1.32,0,2,.76,2,2.27V18h-1.42V13.89a1.31,1.31,0,0,0-.26-.89,1.12,1.12,0,0,0-.85-.29,1.37,1.37,0,0,0-1.29.78V18H115V11.66Z" transform="translate(0.5 0.5)" fill="#45484f"/><path d="M126.44,10.12v1.54h1.12v1.05h-1.12v3.54a.82.82,0,0,0,.14.53.67.67,0,0,0,.52.16,2.2,2.2,0,0,0,.5-.06V18a3.57,3.57,0,0,1-.94.14c-1.1,0-1.64-.61-1.64-1.81v-3.6h-1V11.66h1V10.12Z" transform="translate(0.5 0.5)" fill="#45484f"/><path d="M130.06,12.35a2.21,2.21,0,0,1,1.76-.81c1.35,0,2,.77,2.06,2.32V18h-1.43V13.91a1.21,1.21,0,0,0-.29-.93,1.14,1.14,0,0,0-.83-.27,1.35,1.35,0,0,0-1.27.76V18h-1.43V9h1.43Z" transform="translate(0.5 0.5)" fill="#45484f"/><path d="M138.11,18.12a3,3,0,0,1-2.2-.85,3.15,3.15,0,0,1-.83-2.28v-.17a3.82,3.82,0,0,1,.36-1.69,2.87,2.87,0,0,1,1-1.17,2.71,2.71,0,0,1,1.48-.42,2.49,2.49,0,0,1,2,.83,3.5,3.5,0,0,1,.71,2.34v.57h-4.15a2,2,0,0,0,.52,1.24,1.58,1.58,0,0,0,1.17.46,1.92,1.92,0,0,0,1.59-.79l.77.73a2.66,2.66,0,0,1-1,.89A3.3,3.3,0,0,1,138.11,18.12Zm-.17-5.43a1.2,1.2,0,0,0-.95.41,2.13,2.13,0,0,0-.45,1.14h2.71v-.11a1.76,1.76,0,0,0-.38-1.08A1.2,1.2,0,0,0,137.94,12.69Z" transform="translate(0.5 0.5)" fill="#45484f"/><path d="M4.94,47.39l-.19.46ZM.61,43.06l-.46.19Zm160.78,0-.46-.19Zm-4.33,4.33.19.46Zm0-46.78-.19.46Zm4.33,4.33-.46.19ZM12,.5H150v-1H12ZM161.5,12V36h1V12ZM150,47.5H12v1H150ZM.5,36V12h-1V36ZM12,47.5c-1.87,0-3.25,0-4.34-.08a7.91,7.91,0,0,1-2.53-.49l-.38.92a8.71,8.71,0,0,0,2.84.57c1.14.08,2.55.08,4.41.08ZM-.5,36c0,1.86,0,3.27.08,4.41a8.71,8.71,0,0,0,.57,2.84l.92-.38a8.17,8.17,0,0,1-.5-2.53C.5,39.25.5,37.87.5,36ZM5.13,46.93a7.48,7.48,0,0,1-4.06-4.06l-.92.38a8.44,8.44,0,0,0,4.6,4.6ZM161.5,36c0,1.87,0,3.25-.07,4.34a8.17,8.17,0,0,1-.5,2.53l.92.38a8.45,8.45,0,0,0,.57-2.84c.08-1.14.08-2.55.08-4.41ZM150,48.5c1.86,0,3.27,0,4.41-.08a8.71,8.71,0,0,0,2.84-.57l-.38-.92a7.91,7.91,0,0,1-2.53.49c-1.09.08-2.47.08-4.34.08Zm10.93-5.63a7.48,7.48,0,0,1-4.06,4.06l.38.92a8.44,8.44,0,0,0,4.6-4.6ZM150,.5c1.87,0,3.25,0,4.34.07a8.17,8.17,0,0,1,2.53.5l.38-.92a8.71,8.71,0,0,0-2.84-.57C153.27-.5,151.86-.5,150-.5ZM162.5,12c0-1.86,0-3.27-.08-4.41a8.45,8.45,0,0,0-.57-2.84l-.92.38a8.17,8.17,0,0,1,.5,2.53c.07,1.09.07,2.47.07,4.34ZM156.87,1.07a7.48,7.48,0,0,1,4.06,4.06l.92-.38a8.44,8.44,0,0,0-4.6-4.6ZM12-.5c-1.86,0-3.27,0-4.41.08A8.71,8.71,0,0,0,4.75.15l.38.92A8.17,8.17,0,0,1,7.66.57C8.75.5,10.13.5,12,.5ZM.5,12c0-1.87,0-3.25.07-4.34a8.17,8.17,0,0,1,.5-2.53L.15,4.75A8.71,8.71,0,0,0-.42,7.59C-.5,8.73-.5,10.14-.5,12ZM4.75.15a8.44,8.44,0,0,0-4.6,4.6l.92.38A7.48,7.48,0,0,1,5.13,1.07Z" transform="translate(0.5 0.5)" fill="#b9c6d2"/></svg>