<svg id="Слой_1" data-name="Слой 1" xmlns="http://www.w3.org/2000/svg" xmlns:xlink="http://www.w3.org/1999/xlink" viewBox="0 0 163 49"><defs><linearGradient id="Безымянный_градиент" x1="26.16" y1="39.55" x2="6.02" y2="19.41" gradientTransform="matrix(1, 0, 0, -1, 0, 50)" gradientUnits="userSpaceOnUse"><stop offset="0" stop-color="#00a0ff"/><stop offset="0.01" stop-color="#00a1ff"/><stop offset="0.26" stop-color="#00beff"/><stop offset="0.51" stop-color="#00d2ff"/><stop offset="0.76" stop-color="#00dfff"/><stop offset="1" stop-color="#00e3ff"/></linearGradient><linearGradient id="Безымянный_градиент_2" x1="40.6" y1="26" x2="11.57" y2="26" gradientTransform="matrix(1, 0, 0, -1, 0, 50)" gradientUnits="userSpaceOnUse"><stop offset="0" stop-color="#ffe000"/><stop offset="0.41" stop-color="#ffbd00"/><stop offset="0.78" stop-color="orange"/><stop offset="1" stop-color="#ff9c00"/></linearGradient><linearGradient id="Безымянный_градиент_3" x1="29.79" y1="23.25" x2="2.48" y2="-4.06" gradientTransform="matrix(1, 0, 0, -1, 0, 50)" gradientUnits="userSpaceOnUse"><stop offset="0" stop-color="#ff3a44"/><stop offset="1" stop-color="#c31162"/></linearGradient><linearGradient id="Безымянный_градиент_4" x1="8.76" y1="49.79" x2="20.95" y2="37.59" gradientTransform="matrix(1, 0, 0, -1, 0, 50)" gradientUnits="userSpaceOnUse"><stop offset="0" stop-color="#32a071"/><stop offset="0.07" stop-color="#2da771"/><stop offset="0.48" stop-color="#15cf74"/><stop offset="0.8" stop-color="#06e775"/><stop offset="1" stop-color="#00f076"/></linearGradient></defs><path d="M0,8A8,8,0,0,1,8,0H154a8,8,0,0,1,8,8V40a8,8,0,0,1-8,8H8a8,8,0,0,1-8-8Z" transform="translate(0.5 0.5)" fill="#fff"/><path d="M81.76,26.1a5.11,5.11,0,1,0,5.13,5.1A5,5,0,0,0,81.76,26.1Zm0,8.2a3.1,3.1,0,1,1,2.88-3.09A3,3,0,0,1,81.76,34.3ZM70.59,26.1a5.11,5.11,0,1,0,5.12,5.1A5,5,0,0,0,70.59,26.1Zm0,8.2a3.1,3.1,0,1,1,2.88-3.09A3,3,0,0,1,70.59,34.3Zm-13.3-6.63v2.16h5.18a4.49,4.49,0,0,1-1.18,2.73,5.3,5.3,0,0,1-4,1.58,5.76,5.76,0,0,1,0-11.52,5.54,5.54,0,0,1,3.91,1.55l1.53-1.53a7.56,7.56,0,0,0-5.44-2.18,7.93,7.93,0,1,0,0,15.85,7.25,7.25,0,0,0,5.53-2.23A7.16,7.16,0,0,0,64.7,29a6.77,6.77,0,0,0-.12-1.35Zm54.37,1.68a4.74,4.74,0,0,0-4.37-3.25,4.85,4.85,0,0,0-4.81,5.1,5,5,0,0,0,5.06,5.11,5.09,5.09,0,0,0,4.26-2.26l-1.74-1.16a2.93,2.93,0,0,1-2.52,1.41,2.58,2.58,0,0,1-2.47-1.55l6.82-2.82Zm-7,1.7a2.8,2.8,0,0,1,2.67-3,2,2,0,0,1,1.9,1.09ZM99.15,36h2.25V21H99.15Zm-3.67-8.76H95.4a3.53,3.53,0,0,0-2.68-1.14,5.11,5.11,0,0,0,0,10.21,3.47,3.47,0,0,0,2.68-1.16h.08v.73c0,2-1,3-2.72,3a2.82,2.82,0,0,1-2.58-1.82l-2,.82a4.87,4.87,0,0,0,4.53,3c2.62,0,4.85-1.54,4.85-5.31V26.41H95.48v.83ZM92.91,34.3a2.93,2.93,0,0,1-2.84-3.07,3,3,0,0,1,2.84-3.12,2.88,2.88,0,0,1,2.73,3.12A2.86,2.86,0,0,1,92.91,34.3ZM122.17,21H116.8V36H119V30.32h3.13a4.67,4.67,0,1,0,0-9.32Zm0,7.23H119V23.09h3.18a2.57,2.57,0,1,1,0,5.14Zm13.84-2.16a4.2,4.2,0,0,0-4,2.3l2,.83a2.11,2.11,0,0,1,2-1.1A2.16,2.16,0,0,1,138.46,30v.15a5,5,0,0,0-2.34-.57c-2.14,0-4.32,1.17-4.32,3.37a3.46,3.46,0,0,0,3.72,3.3,3.16,3.16,0,0,0,2.86-1.46h.08V36h2.16V30.22C140.62,27.56,138.63,26.07,136.06,26.07Zm-.27,8.23c-.73,0-1.75-.37-1.75-1.28,0-1.16,1.27-1.6,2.37-1.6a4,4,0,0,1,2.05.5A2.73,2.73,0,0,1,135.79,34.3Zm12.7-7.9-2.56,6.51h-.08l-2.67-6.51h-2.41l4,9.09-2.28,5.06h2.33L151,26.4ZM128.32,36h2.24V21h-2.24Z" transform="translate(0.5 0.5)" fill="#45484f"/><path d="M12.52,9.05A2.39,2.39,0,0,0,12,10.73V37.27A2.41,2.41,0,0,0,12.52,39l.09.08L27.48,24.18v-.35L12.61,9Z" transform="translate(0.5 0.5)" fill="url(#Безымянный_градиент)"/><path d="M32.43,29.13l-4.95-4.95v-.35l4.95-5,.12.06,5.87,3.34c1.67.95,1.67,2.51,0,3.47l-5.87,3.33Z" transform="translate(0.5 0.5)" fill="url(#Безымянный_градиент_2)"/><path d="M32.55,29.07,27.48,24l-15,15A2,2,0,0,0,15,39Z" transform="translate(0.5 0.5)" fill="url(#Безымянный_градиент_3)"/><path d="M32.55,18.93,15,9a2,2,0,0,0-2.5.08l15,15Z" transform="translate(0.5 0.5)" fill="url(#Безымянный_градиент_4)"/><path d="M55.79,15a2.6,2.6,0,0,1-1.18.84,4.79,4.79,0,0,1-1.71.29,3.37,3.37,0,0,1-1.74-.45A3.06,3.06,0,0,1,50,14.39a4.54,4.54,0,0,1-.42-1.94v-.61a4.12,4.12,0,0,1,.85-2.77,2.94,2.94,0,0,1,2.37-1,3.11,3.11,0,0,1,2.07.65,2.77,2.77,0,0,1,.92,1.86H54.45a1.5,1.5,0,0,0-1.64-1.42,1.61,1.61,0,0,0-1.39.66,3.4,3.4,0,0,0-.49,1.93v.6a3.21,3.21,0,0,0,.53,2A1.77,1.77,0,0,0,53,15a2,2,0,0,0,1.48-.47V13H52.82V12h3Z" transform="translate(0.5 0.5)" fill="#45484f"/><path d="M61.85,12.51H58.64v2.4h3.75V16H57.28V8.18h5.08v1.1H58.64v2.15h3.21Z" transform="translate(0.5 0.5)" fill="#45484f"/><path d="M69.26,9.28H66.82V16H65.47V9.28H63.06V8.18h6.2Z" transform="translate(0.5 0.5)" fill="#45484f"/><path d="M74.14,16H72.79V8.18h1.35Z" transform="translate(0.5 0.5)" fill="#45484f"/><path d="M82,16H80.66l-3.49-5.55V16H75.81V8.18h1.36l3.5,5.57V8.18H82Z" transform="translate(0.5 0.5)" fill="#45484f"/><path d="M92.6,12.29a4.73,4.73,0,0,1-.4,2,3,3,0,0,1-1.13,1.34,3.37,3.37,0,0,1-3.4,0,3.18,3.18,0,0,1-1.15-1.33,4.73,4.73,0,0,1-.41-2V11.9a4.73,4.73,0,0,1,.41-2,3,3,0,0,1,1.14-1.34,3.12,3.12,0,0,1,1.7-.47,3.19,3.19,0,0,1,1.69.46,3,3,0,0,1,1.14,1.33,4.64,4.64,0,0,1,.41,2Zm-1.36-.4a3.42,3.42,0,0,0-.49-2,1.74,1.74,0,0,0-2.77,0,3.38,3.38,0,0,0-.51,1.95v.45a3.46,3.46,0,0,0,.5,2,1.62,1.62,0,0,0,1.4.7,1.58,1.58,0,0,0,1.38-.69,3.43,3.43,0,0,0,.49-2Z" transform="translate(0.5 0.5)" fill="#45484f"/><path d="M100.16,16H98.8l-3.49-5.55V16H94V8.18h1.35l3.5,5.57V8.18h1.35Z" transform="translate(0.5 0.5)" fill="#45484f"/><path d="M8,.5H154v-1H8ZM161.5,8V40h1V8ZM154,47.5H8v1H154ZM.5,40V8h-1V40ZM8,47.5A7.5,7.5,0,0,1,.5,40h-1A8.51,8.51,0,0,0,8,48.5ZM161.5,40a7.5,7.5,0,0,1-7.5,7.5v1a8.51,8.51,0,0,0,8.5-8.5ZM154,.5A7.5,7.5,0,0,1,161.5,8h1A8.51,8.51,0,0,0,154-.5ZM8-.5A8.51,8.51,0,0,0-.5,8h1A7.5,7.5,0,0,1,8,.5Z" transform="translate(0.5 0.5)" fill="#b9c6d2"/></svg>