<?xml version="1.0" encoding="UTF-8"?>
<svg width="64px" height="64px" viewBox="0 0 64 64" version="1.1" xmlns="http://www.w3.org/2000/svg" xmlns:xlink="http://www.w3.org/1999/xlink">
    <!-- Generator: Sketch 64 (93537) - https://sketch.com -->
    <title>advertiser</title>
    <desc>Created with Sketch.</desc>
    <defs>
        <rect id="path-1" x="0" y="0" width="64" height="64" rx="32"></rect>
    </defs>
    <g id="-Design" stroke="none" stroke-width="1" fill="none" fill-rule="evenodd">
        <g id="icons" transform="translate(-573.000000, -154.000000)">
            <g id="advertiser" transform="translate(573.000000, 154.000000)">
                <mask id="mask-2" fill="white">
                    <use xlink:href="#path-1"></use>
                </mask>
                <use id="🖼-Image" fill="#EEF2F8" xlink:href="#path-1"></use>
                <path d="M32,12 C38.0751322,12 43,16.9248678 43,23 L43,30 C42.3437467,33.2812663 40.8779032,36.3465162 38.7356873,38.9171753 L37,41 L37,44 L41,45.0028375 C41,45.4132015 40.8351376,45.80788 40.5396447,46.1035852 L40.5396447,46.1035852 L38.1345493,68.513749 C37.8311567,68.818291 32.4139633,68.9930409 31.976162,69 L31.976162,69 L31.9494864,69 C31.5214166,69 25.1093751,68.8390578 24.8020899,68.5503117 L24.8020899,68.5503117 L23.4969424,46.4441376 C23.1565702,46.1237996 22.976481,45.6773147 23.0024697,45.2193418 L23.0024697,45.2193418 L23.0033856,45.2037667 L27.0033856,44 L27.002555,41.0030641 C27.001703,41.002043 27.0008514,41.0010216 27,41 L25.2643127,38.9171753 C23.2292076,36.4750492 21.8045286,33.5865549 21.1044933,30.490535 L21,30 L21,23 C21,16.9248678 25.9248678,12 32,12 Z" id="Combined-Shape" fill="#FFFFFF" fill-rule="nonzero" mask="url(#mask-2)"></path>
                <path d="M38.4751872,44.6805023 L41.4889326,44.998835 C47.1466184,45.5943809 51.7598855,49.7994277 52.8755792,55.3778961 L55,66 L36.382,65.9995023 L34.1969696,57.7441074 C34.080863,57.3054825 33.6839962,57 33.2302644,57 L30.7697356,57 C30.3160038,57 29.919137,57.3054825 29.8030304,57.7441074 L27.618,65.9995023 L9,66 L11.1244208,55.3778961 C12.2401145,49.7994277 16.8533816,45.5943809 22.5110674,44.998835 L25.524,44.6815023 L25.6005368,44.7721188 L28.5,48.5 C28.7259726,48.7905362 28.9872416,49.0518052 29.2777778,49.2777778 C31.2107744,50.7812196 33.9965582,50.4329966 35.5,48.5 L35.5,48.5 L38.3994632,44.7721188 C38.4238741,44.7407332 38.4491305,44.7101871 38.4751872,44.6805023 Z M33,51 L31,51 L29.874032,52.125968 C29.3383675,52.6616325 29.1513225,53.4539676 29.390879,54.172637 L29.390879,54.172637 L29.7720759,55.3162278 C29.90819,55.7245699 30.2903288,56 30.7207592,56 L30.7207592,56 L33.2792408,56 C33.7096712,56 34.09181,55.7245699 34.2279241,55.3162278 L34.2279241,55.3162278 L34.609121,54.172637 C34.8486775,53.4539676 34.6616325,52.6616325 34.125968,52.125968 L34.125968,52.125968 L33,51 Z" id="Combined-Shape" fill="#B9C6D2" mask="url(#mask-2)"></path>
                <path d="M32.5697232,10 L31.5380489,10 C24.4901599,10 18.7567568,15.5497796 18.7567568,22.3706881 L18.7567568,24.0205757 L18.7567568,25.5647708 L18.7567568,28.173913 C18.7567568,28.173913 21.6666361,27.8944511 22.0246028,26.5286868 L22.0226987,26.5272775 C22.1455677,26.3979532 22.2482759,26.2506341 22.3207429,26.0858621 C23.9713546,26.0377314 31.6818628,25.9796276 36.0849874,20.8327804 C36.6105129,22.3206061 38.3880258,25.137773 41.8084221,26.0249399 C41.878985,26.2044546 41.9837093,26.3664081 42.1118425,26.506681 L42.0835053,26.5287952 C42.441248,27.8945595 45.3513514,28.173913 45.3513514,28.173913 L45.3513514,25.5541474 L45.3513514,24.0205757 L45.3513514,22.3706881 C45.3513514,15.5497796 39.6173882,10 32.5697232,10 Z M42.2062624,25.6403274 L42.3293554,25.554039 L42.3468281,25.554039 L42.1463399,25.6977808 L42.2062624,25.6403274 Z M42.1436518,25.6775095 L42.1574284,25.6354493 L42.2001021,25.554039 L42.2174628,25.554039 L42.1667248,25.6562626 L42.1436518,25.6775095 Z M41.8046139,25.9311716 L41.7999097,25.9246675 L42.1150906,25.7039598 L42.0407196,25.7735542 L41.8103261,25.9384346 L41.8046139,25.9311716 Z M42.0648006,25.8595175 L41.9661245,26.0571354 C41.9653405,26.0569186 41.9651165,26.0569186 41.9643325,26.056485 L41.9505559,26.0504145 C41.9483158,26.0494388 41.9457397,26.0479212 41.9438356,26.0469456 L42.1046742,25.7374562 L42.1089304,25.7335537 L42.0648006,25.8595175 Z" id="Shape" fill="#B9C6D2" mask="url(#mask-2)"></path>
            </g>
        </g>
    </g>
</svg>