<svg width="64" height="64" viewBox="0 0 64 64" fill="none" xmlns="http://www.w3.org/2000/svg">
    <path d="M0 4C0 1.79086 1.79086 0 4 0H60C62.2091 0 64 1.79086 64 4V60C64 62.2091 62.2091 64 60 64H4C1.79086 64 0 62.2091 0 60V4Z" fill="#687B88"/>
    <path d="M32 48C27.7262 48 23.7083 46.3357 20.6863 43.3137C17.6643 40.2917 16 36.2738 16 32C16 27.7262 17.6643 23.7083 20.6863 20.6863C23.7083 17.6643 27.7262 16 32 16C36.2738 16 40.2917 17.6643 43.3137 20.6863C46.3357 23.7083 48 27.7262 48 32C48 36.2738 46.3357 40.2917 43.3137 43.3137C40.2917 46.3357 36.2738 48 32 48Z" fill="#41C6EF"/>
    <path d="M43.3137 20.6863C40.2917 17.6643 36.2737 16 32 16V48C36.2737 48 40.2917 46.3357 43.3137 43.3137C46.3357 40.2917 48 36.2738 48 32C48 27.7262 46.3357 23.7083 43.3137 20.6863Z" fill="#2E9CE8"/>
    <path d="M34.8125 39.1875V29.8125H27.9375V31.6875H29.1875V39.1875H27.875V41.0625H36V39.1875H34.8125Z" fill="white"/>
    <path d="M32 27.9375C33.5508 27.9375 34.8125 26.6758 34.8125 25.125C34.8125 23.5742 33.5508 22.3125 32 22.3125C30.4492 22.3125 29.1875 23.5742 29.1875 25.125C29.1875 26.6758 30.4492 27.9375 32 27.9375Z" fill="white"/>
    <path d="M32 27.9375C33.5508 27.9375 34.8125 26.6758 34.8125 25.125C34.8125 23.5742 33.5508 22.3125 32 22.3125V27.9375Z" fill="#7DD6FF"/>
    <path d="M34.8125 39.1875V29.8125H32V41.0625H36V39.1875H34.8125Z" fill="#7DD6FF"/>
</svg>
