<?xml version="1.0" encoding="UTF-8"?>
<svg width="24px" height="24px" viewBox="0 0 24 24" version="1.1" xmlns="http://www.w3.org/2000/svg" xmlns:xlink="http://www.w3.org/1999/xlink">
    <!-- Generator: Sketch 55.2 (78181) - https://sketchapp.com -->
    <title>icons/ui/calendar</title>
    <desc>Created with Sketch.</desc>
    <g id="icons/ui/calendar" stroke="none" stroke-width="1" fill="none" fill-rule="evenodd">
        <g id="calendar" transform="translate(4.000000, 4.000000)" fill="#718290">
            <path d="M14,1 L12,1 C12,0.44771525 11.5522847,0 11,0 C10.4477153,0 10,0.44771525 10,1 L6,1 C6,0.44771525 5.55228475,0 5,0 C4.44771525,0 4,0.44771525 4,1 L2,1 C0.8954305,1 0,1.8954305 0,3 L0,14 C0,15.1045695 0.8954305,16 2,16 L14,16 C15.1045695,16 16,15.1045695 16,14 L16,3 C16,1.8954305 15.1045695,1 14,1 Z M2,3 L4,3 C4,3.55228475 4.44771525,4 5,4 C5.55228475,4 6,3.55228475 6,3 L10,3 C10,3.55228475 10.4477153,4 11,4 C11.5522847,4 12,3.55228475 12,3 L14,3 L14,5 L2,5 L2,3 Z M2,14 L2,7 L14,7 L14,14 L2,14 Z"></path>
        </g>
        <rect id="Rectangle" x="0" y="0" width="24" height="24"></rect>
    </g>
</svg>