<svg width="343" height="102" viewBox="0 0 343 102" fill="none" xmlns="http://www.w3.org/2000/svg">
<path fill-rule="evenodd" clip-rule="evenodd" d="M241.737 26.2439H232.705V87.9872H241.737V26.2439ZM89.3764 75.4739C89.8689 83.7069 97.3415 88.8108 106.949 88.8108C106.955 88.8108 108.795 88.8108 108.8 88.8097C117.988 88.8044 124.877 84.6056 124.877 76.6255C124.877 70.3688 121.346 66.0877 113.956 64.1944L105.224 62.3833C101.776 61.4775 99.7231 60.0785 99.7231 57.4439C99.7231 54.8094 102.269 53.2452 105.718 53.2452H106.643H107.557C110.756 53.247 113.463 54.894 114.284 58.3492H123.316C122.95 54.2321 120.886 50.8769 117.602 48.709C114.982 46.9797 111.585 46.0051 107.656 46.001H106.659H105.798C101.564 46.001 97.9917 46.9785 95.3691 48.7073C92.2945 50.7346 90.525 53.7948 90.525 57.5268C90.525 63.5366 93.9743 68.1468 101.036 69.9579L109.603 71.769C113.873 72.8394 115.68 74.4035 115.68 77.2027C115.68 79.996 112.981 81.5596 109.054 81.566H108.1H107.195C103.172 81.566 99.4762 79.9196 98.7375 75.4739H89.3764ZM132.561 67.4062C132.561 79.2613 141.593 88.8109 154.075 88.8109C164.914 88.8109 172.715 82.0604 174.932 72.9217H165.407C163.764 77.3673 159.741 80.578 154.075 80.578C146.767 80.578 141.758 75.0625 141.758 67.4062C141.758 59.75 146.767 54.2345 154.075 54.2345C159.741 54.2345 163.764 57.4452 165.407 61.8908H174.932C172.715 52.7526 164.914 46.0022 154.075 46.0022C141.593 46.0022 132.561 55.5512 132.561 67.4062ZM201.425 46.0022C207.337 46.0022 212.264 49.0482 214.563 52.3412V46.8251H223.595V87.9874H214.563V82.4719C212.264 85.7648 207.337 88.8109 201.425 88.8109C190.175 88.8109 181.635 79.179 181.635 67.4062C181.635 55.6341 190.175 46.0022 201.425 46.0022ZM203.067 54.2345C195.759 54.2345 190.832 59.9974 190.832 67.4062C190.832 74.8156 195.759 80.578 203.067 80.578C210.376 80.578 215.302 74.815 215.302 67.4062C215.302 59.9974 210.376 54.2345 203.067 54.2345ZM271.466 88.8109C259.231 88.8109 250.445 79.755 250.445 67.4062C250.445 55.2221 258.902 46.0022 271.549 46.0022C284.112 46.0022 292.898 55.6341 292.077 69.6294H259.395C259.724 75.886 264.486 80.8254 271.795 80.8254C276.311 80.8254 280.252 79.0144 282.141 75.0625H291.584C289.285 82.8011 281.895 88.8109 271.466 88.8109ZM259.723 63.2081H282.387C280.992 56.5399 276.311 53.5762 271.302 53.5762C265.636 53.5756 260.955 56.8691 259.723 63.2081ZM334.297 51.2187C338.499 54.8573 341.293 60.1212 341.657 66.1157C342.077 73.0301 339.172 79.3726 334.332 83.589L334.35 83.6067C334.238 83.7036 334.122 83.7917 334.006 83.8798C333.928 83.9386 333.85 83.9973 333.774 84.0587C333.564 84.2291 333.352 84.3973 333.135 84.5601C332.901 84.7341 332.668 84.9069 332.429 85.0703C332.06 85.3242 331.681 85.5641 331.296 85.7951C331.247 85.8239 331.199 85.8531 331.151 85.8823C331.062 85.9366 330.973 85.9908 330.882 86.042C330.371 86.3329 329.844 86.601 329.306 86.8502C329.272 86.8655 329.24 86.8825 329.206 86.8978C327.346 87.7484 325.34 88.3438 323.226 88.6295L323.224 88.5931C316.866 89.4348 310.204 87.4204 305.319 82.5233C301.082 78.2752 299.003 72.6874 299.072 67.1214L299 67.1255C299.108 58.4976 304.369 50.973 311.979 47.7218C311.993 47.7159 312.007 47.7096 312.021 47.7033C312.034 47.697 312.048 47.6907 312.062 47.6848C312.571 47.4702 313.091 47.2786 313.62 47.1028C313.801 47.0423 313.983 46.9835 314.165 46.9277C314.538 46.8148 314.917 46.7137 315.299 46.6208C315.763 46.5062 316.229 46.4128 316.697 46.3299C316.814 46.3099 316.929 46.2875 317.047 46.2693C323.082 45.3059 329.447 46.9247 334.349 51.1664L334.297 51.2187ZM311.273 58.2237C306.235 63.2748 306.232 71.4989 311.273 76.5535C315.039 80.3284 320.565 81.2766 325.22 79.4126C325.328 79.3689 325.434 79.3212 325.539 79.2734C325.565 79.2614 325.592 79.2494 325.619 79.2374C325.804 79.1551 325.99 79.0717 326.173 78.9806C326.472 78.8289 326.765 78.669 327.05 78.4956C327.056 78.492 327.063 78.4885 327.069 78.4849C327.076 78.481 327.083 78.477 327.09 78.4727C331.032 76.0468 333.551 71.5735 333.251 66.6294C332.817 59.4987 326.677 54.0449 319.561 54.4793C318.748 54.5287 317.958 54.6545 317.195 54.8461C317.166 54.8537 317.136 54.8624 317.107 54.8711C317.082 54.8787 317.057 54.8863 317.031 54.8931C316.727 54.9743 316.427 55.0642 316.132 55.1665C315.997 55.214 315.864 55.2674 315.731 55.3209C315.696 55.3349 315.661 55.3489 315.626 55.3628C315.45 55.4328 315.272 55.5009 315.099 55.5779C314.843 55.6931 314.591 55.8207 314.341 55.9541C314.309 55.9714 314.276 55.9881 314.243 56.0049C314.196 56.0285 314.149 56.0521 314.103 56.0776C313.089 56.646 312.135 57.3602 311.273 58.2237Z" fill="#232C69"/>
<path fill-rule="evenodd" clip-rule="evenodd" d="M241.737 26.2439H232.705V87.9872H241.737V26.2439ZM89.3764 75.4739C89.8689 83.7069 97.3415 88.8108 106.949 88.8108C106.955 88.8108 108.795 88.8108 108.8 88.8097C117.988 88.8044 124.877 84.6056 124.877 76.6255C124.877 70.3688 121.346 66.0877 113.956 64.1944L105.224 62.3833C101.776 61.4775 99.7231 60.0785 99.7231 57.4439C99.7231 54.8094 102.269 53.2452 105.718 53.2452H106.643H107.557C110.756 53.247 113.463 54.894 114.284 58.3492H123.316C122.95 54.2321 120.886 50.8769 117.602 48.709C114.982 46.9797 111.585 46.0051 107.656 46.001H106.659H105.798C101.564 46.001 97.9917 46.9785 95.3691 48.7073C92.2945 50.7346 90.525 53.7948 90.525 57.5268C90.525 63.5366 93.9743 68.1468 101.036 69.9579L109.603 71.769C113.873 72.8394 115.68 74.4035 115.68 77.2027C115.68 79.996 112.981 81.5596 109.054 81.566H108.1H107.195C103.172 81.566 99.4762 79.9196 98.7375 75.4739H89.3764ZM132.561 67.4062C132.561 79.2613 141.593 88.8109 154.075 88.8109C164.914 88.8109 172.715 82.0604 174.932 72.9217H165.407C163.764 77.3673 159.741 80.578 154.075 80.578C146.767 80.578 141.758 75.0625 141.758 67.4062C141.758 59.75 146.767 54.2345 154.075 54.2345C159.741 54.2345 163.764 57.4452 165.407 61.8908H174.932C172.715 52.7526 164.914 46.0022 154.075 46.0022C141.593 46.0022 132.561 55.5512 132.561 67.4062ZM201.425 46.0022C207.337 46.0022 212.264 49.0482 214.563 52.3412V46.8251H223.595V87.9874H214.563V82.4719C212.264 85.7648 207.337 88.8109 201.425 88.8109C190.175 88.8109 181.635 79.179 181.635 67.4062C181.635 55.6341 190.175 46.0022 201.425 46.0022ZM203.067 54.2345C195.759 54.2345 190.832 59.9974 190.832 67.4062C190.832 74.8156 195.759 80.578 203.067 80.578C210.376 80.578 215.302 74.815 215.302 67.4062C215.302 59.9974 210.376 54.2345 203.067 54.2345ZM271.466 88.8109C259.231 88.8109 250.445 79.755 250.445 67.4062C250.445 55.2221 258.902 46.0022 271.549 46.0022C284.112 46.0022 292.898 55.6341 292.077 69.6294H259.395C259.724 75.886 264.486 80.8254 271.795 80.8254C276.311 80.8254 280.252 79.0144 282.141 75.0625H291.584C289.285 82.8011 281.895 88.8109 271.466 88.8109ZM259.723 63.2081H282.387C280.992 56.5399 276.311 53.5762 271.302 53.5762C265.636 53.5756 260.955 56.8691 259.723 63.2081ZM334.297 51.2187C338.499 54.8573 341.293 60.1212 341.657 66.1157C342.077 73.0301 339.172 79.3726 334.332 83.589L334.35 83.6067C334.238 83.7036 334.122 83.7917 334.006 83.8798C333.928 83.9386 333.85 83.9973 333.774 84.0587C333.564 84.2291 333.352 84.3973 333.135 84.5601C332.901 84.7341 332.668 84.9069 332.429 85.0703C332.06 85.3242 331.681 85.5641 331.296 85.7951C331.247 85.8239 331.199 85.8531 331.151 85.8823C331.062 85.9366 330.973 85.9908 330.882 86.042C330.371 86.3329 329.844 86.601 329.306 86.8502C329.272 86.8655 329.24 86.8825 329.206 86.8978C327.346 87.7484 325.34 88.3438 323.226 88.6295L323.224 88.5931C316.866 89.4348 310.204 87.4204 305.319 82.5233C301.082 78.2752 299.003 72.6874 299.072 67.1214L299 67.1255C299.108 58.4976 304.369 50.973 311.979 47.7218C311.993 47.7159 312.007 47.7096 312.021 47.7033C312.034 47.697 312.048 47.6907 312.062 47.6848C312.571 47.4702 313.091 47.2786 313.62 47.1028C313.801 47.0423 313.983 46.9835 314.165 46.9277C314.538 46.8148 314.917 46.7137 315.299 46.6208C315.763 46.5062 316.229 46.4128 316.697 46.3299C316.814 46.3099 316.929 46.2875 317.047 46.2693C323.082 45.3059 329.447 46.9247 334.349 51.1664L334.297 51.2187ZM311.273 58.2237C306.235 63.2748 306.232 71.4989 311.273 76.5535C315.039 80.3284 320.565 81.2766 325.22 79.4126C325.328 79.3689 325.434 79.3212 325.539 79.2734C325.565 79.2614 325.592 79.2494 325.619 79.2374C325.804 79.1551 325.99 79.0717 326.173 78.9806C326.472 78.8289 326.765 78.669 327.05 78.4956C327.056 78.492 327.063 78.4885 327.069 78.4849C327.076 78.481 327.083 78.477 327.09 78.4727C331.032 76.0468 333.551 71.5735 333.251 66.6294C332.817 59.4987 326.677 54.0449 319.561 54.4793C318.748 54.5287 317.958 54.6545 317.195 54.8461C317.166 54.8537 317.136 54.8624 317.107 54.8711C317.082 54.8787 317.057 54.8863 317.031 54.8931C316.727 54.9743 316.427 55.0642 316.132 55.1665C315.997 55.214 315.864 55.2674 315.731 55.3209C315.696 55.3349 315.661 55.3489 315.626 55.3628C315.45 55.4328 315.272 55.5009 315.099 55.5779C314.843 55.6931 314.591 55.8207 314.341 55.9541C314.309 55.9714 314.276 55.9881 314.243 56.0049C314.196 56.0285 314.149 56.0521 314.103 56.0776C313.089 56.646 312.135 57.3602 311.273 58.2237Z" fill="#272F69"/>
<path fill-rule="evenodd" clip-rule="evenodd" d="M70.8308 8C75.9335 8 81.0356 9.95154 84.9287 13.8546C92.7144 21.6602 92.7144 34.3158 84.9293 42.1208C81.0362 46.0239 75.9335 47.9754 70.8314 47.9754C67.1711 47.9754 63.5177 46.9532 60.3041 44.9447L67.5246 37.7057C68.5764 38.0649 69.6875 38.2618 70.8314 38.2618C73.5689 38.2618 76.1422 37.1932 78.0782 35.2528C82.074 31.2468 82.074 24.7286 78.0782 20.7226C76.1422 18.7823 73.5689 17.7136 70.8314 17.7136C68.0939 17.7136 65.5206 18.7823 63.5846 20.7226C60.7357 23.5788 59.9295 27.7088 61.1426 31.298L53.9169 38.5422C49.1202 30.8283 50.0478 20.5575 56.7329 13.8546C60.626 9.95154 65.7281 8 70.8308 8ZM45.9336 81.0398C52.5584 74.3981 53.4836 64.1919 48.7456 56.5327L57.4623 47.7943C66.8644 60.3323 65.88 78.2142 54.4979 89.6254C48.2642 95.8751 40.0945 98.9999 31.9243 98.9999C23.754 98.9999 15.5837 95.8751 9.35062 89.6254C-3.11616 77.1262 -3.11616 56.8619 9.35062 44.3626C15.5837 38.113 23.754 34.9888 31.9243 34.9888C38.6733 34.9888 45.4188 37.1272 51.0756 41.3912L42.3618 50.1273C39.2555 48.1875 35.6743 47.1312 31.9243 47.1312C26.6316 47.1312 21.6567 49.1968 17.9143 52.9488C10.1896 60.6939 10.1896 73.2954 17.9143 81.0398C21.6567 84.7919 26.6322 86.858 31.9243 86.858C37.2157 86.858 42.1912 84.7919 45.9336 81.0398Z" fill="url(#paint0_linear)"/>
<defs>
<linearGradient id="paint0_linear" x1="56" y1="92" x2="7.5" y2="40.5" gradientUnits="userSpaceOnUse">
<stop stop-color="#F4558C"/>
<stop offset="1" stop-color="#E23370"/>
</linearGradient>
</defs>
</svg>
