<?xml version="1.0" encoding="UTF-8"?>
<svg width="38px" height="38px" viewBox="0 0 38 38" version="1.1" xmlns="http://www.w3.org/2000/svg" xmlns:xlink="http://www.w3.org/1999/xlink">
    <!-- Generator: Sketch 64 (93537) - https://sketch.com -->
    <title>user</title>
    <desc>Created with Sketch.</desc>
    <defs>
        <circle id="path-1" cx="19" cy="19" r="19"></circle>
        <path d="M5.7849303,0.548534481 C5.5961183,0.364956102 5.34280946,0.268650464 5.07980939,0.278498361 L5.04719337,0.280060441 C4.9885781,0.282097937 4.93016335,0.289840421 4.87275113,0.302540812 C4.50187758,0.386417726 4.12391941,0.429001389 3.75023874,0.429001389 L2.57619572,0.429001389 C2.19115291,0.429001389 1.80236729,0.383972731 1.4201316,0.295002077 C1.1348751,0.228240129 0.835850368,0.297514989 0.607270888,0.482723364 C0.378490899,0.667863822 0.245219705,0.949106169 0.245219705,1.24596932 L0.245219705,4.08447273 L0.244685016,4.09404897 C0.22951322,4.37563089 0.334646414,4.65014951 0.533350155,4.84710744 L2.46284168,6.75692024 C2.64222979,6.93445405 2.88277293,7.03340843 3.13267313,7.03340843 C3.13788635,7.03340843 3.14323323,7.03340843 3.14824594,7.03340843 C3.40382721,7.02912969 3.64737798,6.92168574 3.82449366,6.73443987 L5.8123331,4.63772078 C5.98483709,4.45590823 6.08108108,4.21324247 6.08108108,3.96093257 L6.08108108,1.25350805 C6.08101424,0.987275258 5.97414331,0.732656191 5.7849303,0.548534481 Z" id="path-2"></path>
    </defs>
    <g id="-Design" stroke="none" stroke-width="1" fill="none" fill-rule="evenodd">
        <g id="icons" transform="translate(-573.000000, -235.000000)">
            <g id="user" transform="translate(573.000000, 235.000000)">
                <g id="Oval">
                    <use fill="#8980B7" xlink:href="#path-1"></use>
                    <use fill="#605F68" xlink:href="#path-1"></use>
                </g>
                <path d="M16.8673446,27.9661836 L17.298061,29.4660558 L17.3925689,29.6283135 C17.6266924,29.9975465 17.9545268,30.2996909 18.3440605,30.5030119 C19.5133408,31.1133294 20.9445995,30.7045109 21.6223584,29.5955128 L21.7064051,29.4469163 L21.8040779,29.2597894 L22.4169772,28.1540239 L25.0135135,29.8712315 L24.9638361,29.9721836 L27.7299016,31.1218259 C28.5930389,31.414117 29.9647365,32.2964151 30.7781307,33.9091136 C27.5401561,36.4711204 23.4486225,38 19,38 C14.8871496,38 11.0795178,36.6932033 7.96966932,34.4721745 C8.67397134,32.6085915 10.123941,31.565532 11.1410902,31.1694692 L11.2651148,31.1235914 L11.2697049,31.1218913 L14.0348361,29.9721836 L13.9864865,29.8710989 L16.8673446,27.9661836 Z" id="Combined-Shape" fill="#15001B"></path>
                <g id="Group-2" transform="translate(10.000000, 7.000000)">
                    <g id="man" transform="translate(0.500000, 0.000000)">
                        <path d="M9.29084998,0 L8.7089605,0 C4.7337792,0 1.5,3.35907714 1.5,7.48752177 L1.5,8.48613795 L1.5,9.42078233 L1.5,11 C1.5,11 3.14124291,10.830852 3.34314485,10.0042051 C3.41137204,9.92507695 3.46930198,9.8359101 3.51017512,9.73617971 C4.44116037,9.70704793 6.58845927,8.78747825 10.7544332,8.78747825 C11.0508424,9.68800434 12.5725146,9.16233627 14.5017015,9.6993057 C14.5415007,9.80795934 14.6005677,9.90598382 14.672838,9.99088588 L14.6568551,10.0042708 C14.8586307,10.8309176 16.5,11 16.5,11 L16.5,9.41435235 L16.5,8.48613795 L16.5,7.48752177 C16.5,3.35907714 13.2659049,0 9.29084998,0 Z M14.4772576,10.0100302 L14.5466851,9.95 L14.5565401,9.95 L14.4434599,10.05 L14.4772576,10.0100302 Z M14.46705,10.05 L14.47935,10.015935 L14.51745,9.95 L14.53295,9.95 L14.48765,10.0327919 L14.46705,10.05 Z M14.4137684,10.0675282 L14.4111151,10.0635344 L14.5888849,9.92801211 L14.5469378,9.97074556 L14.4169903,10.0719879 L14.4137684,10.0675282 Z M14.52327,9.97800093 L14.4635007,10.0993453 C14.4630258,10.0992122 14.4628901,10.0992122 14.4624152,10.0989459 L14.4540706,10.0952184 C14.4527137,10.0946193 14.4511533,10.0936874 14.45,10.0930884 L14.547422,9.90305099 L14.55,9.90065472 L14.52327,9.97800093 Z" id="Shape" fill="#15001B"></path>
                        <path d="M16.0803493,10.1860811 C15.7893304,10.100213 15.473188,10.150371 15.2278178,10.3210977 C14.9826476,10.4919506 14.8378378,10.7632458 14.8378378,11.0515127 L14.8378378,13.6346845 C14.8378378,13.9228252 14.9825809,14.1939311 15.2278178,14.3645317 C15.394419,14.4806839 15.5936073,14.5410628 15.7953947,14.5410628 C15.8904906,14.5410628 15.9869193,14.5277504 16.0800827,14.4999269 C16.2636772,14.4459202 16.443873,14.3677493 16.6159387,14.2678118 C16.7170989,14.2091363 16.8059306,14.132732 16.8778357,14.043457 C16.9833942,13.9918478 17.077957,13.9221943 17.1567927,13.8379666 C17.5436406,13.4237683 17.7567568,12.892913 17.7567568,12.3427516 C17.7567568,11.3486756 17.083155,10.481919 16.0803493,10.1860811 Z" id="Path" fill="#FBB98F" fill-rule="nonzero"></path>
                        <path d="M3.09636002,10.3211251 C2.85109007,10.1504021 2.53472449,10.1003082 2.2440786,10.1859221 C1.24154353,10.4820691 0.567567568,11.3488071 0.567567568,12.3427987 C0.567567568,13.337232 1.2414769,14.2039069 2.2440786,14.4999278 C2.33729584,14.5276876 2.43344486,14.5410628 2.52906083,14.5410628 C2.73055398,14.5410628 2.92971505,14.4806851 3.09636002,14.3646616 C3.34182986,14.1939386 3.48648649,13.9228385 3.48648649,13.6346409 L3.48648649,11.051209 C3.48648649,10.7632637 3.34182986,10.4919743 3.09636002,10.3211251 Z" id="Path" fill="#FBB98F" fill-rule="nonzero"></path>
                        <g id="Group-3" transform="translate(5.837838, 17.990746)">
                            <mask id="mask-3" fill="white">
                                <use xlink:href="#path-2"></use>
                            </mask>
                            <use id="Path" fill="#FBB98F" fill-rule="nonzero" xlink:href="#path-2"></use>
                            <path d="M7.49918583,-7.27597597 C7.40609332,-7.31980246 7.71525902,-7.44629516 7.49918583,-8.0374794 C7.48638427,-8.05979844 7.05469407,-9.92308211 7.04157114,-9.95399061 C6.88704185,-10.3127862 4.77237502,-8.0374794 3.26315789,-8.0374794 C1.75394077,-8.0374794 0.162217047,-10.351946 -0.93443205,-9.95399061 C-1.36132925,-9.79471377 -1.10383162,-8.12120964 -1.47368421,-8.0374794 C-2.20872942,-7.86704303 -1.28552299,-7.3548547 -1.28552299,-7.3548547 C-1.68815615,-7.31826499 -2,-6.89501469 -2,-6.38539643 L-2,-2.42038378 C-2,0.733432925 0.0321806551,3.29910891 2.52966319,3.29910891 L3.47055105,3.29910891 C5.96798002,3.29910891 8,0.733500559 8,-2.42038378 L8,-6.54338823 C8,-6.94932437 7.80015639,-7.1342162 7.49918583,-7.27597597 Z" id="Path" fill="#000000" fill-rule="nonzero" opacity="0.146949405" mask="url(#mask-3)"></path>
                        </g>
                        <path d="M14.5449425,9.71477019 C14.4302123,9.6709437 14.8112381,9.544451 14.5449425,8.95326677 C14.5291655,8.93094772 13.2510906,7.51915795 13.2349175,7.48824945 C13.0444706,7.12945385 11.1843325,7.48824945 9.32432432,7.48824945 C7.46431619,7.48824945 6.1361851,7.09029407 4.78463919,7.48824945 C4.25851723,7.64752629 3.94230482,8.86953652 3.48648649,8.95326677 C2.58059293,9.12370313 3.71838248,9.63589146 3.71838248,9.63589146 C3.22216432,9.67248117 2.83783784,10.0957315 2.83783784,10.6053497 L2.83783784,13.5703624 C2.83783784,16.7241791 5.34236319,20.2898551 8.42034166,20.2898551 L9.57992238,20.2898551 C12.6578348,20.2898551 15.1621622,16.7242467 15.1621622,13.5703624 L15.1621622,10.4473579 C15.1621622,10.0414218 14.9158684,9.85652996 14.5449425,9.71477019 Z" id="Path" fill="#FBB98F" fill-rule="nonzero"></path>
                    </g>
                </g>
            </g>
        </g>
    </g>
</svg>