<?xml version="1.0" encoding="UTF-8"?>
<svg width="28px" height="28px" viewBox="0 0 28 28" version="1.1" xmlns="http://www.w3.org/2000/svg" xmlns:xlink="http://www.w3.org/1999/xlink">
    <!-- Generator: Sketch 61 (89581) - https://sketch.com -->
    <title>negative</title>
    <desc>Created with Sketch.</desc>
    <g id="🖥-Administrator---Settings" stroke="none" stroke-width="1" fill="none" fill-rule="evenodd">
        <g id="Admin-Settings---Errors" transform="translate(-468.000000, -25.000000)">
            <g id="Group-4" transform="translate(458.000000, 15.000000)">
                <g id="negative" transform="translate(10.000000, 10.000000)">
                    <circle id="Oval" stroke="#FFFFFF" stroke-width="2" cx="14" cy="14" r="13"></circle>
                    <g id="icons/ui/check" transform="translate(6.000000, 6.000000)">
                        <path d="M12.2300191,2.86192881 C12.4903686,2.60157928 12.9124786,2.60157928 13.1728281,2.86192881 C13.4331777,3.12227834 13.4331777,3.54438833 13.1728281,3.80473785 L13.1728281,3.80473785 L8.95966667,8.01666667 L13.1380712,12.1952621 C13.3723858,12.4295767 13.3958172,12.7949173 13.2083656,13.055437 L13.1380712,13.1380712 C12.8777217,13.3984207 12.4556117,13.3984207 12.1952621,13.1380712 L12.1952621,13.1380712 L8.01666667,8.95966667 L3.8394948,13.1380712 C3.60518022,13.3723858 3.23983968,13.3958172 2.97931991,13.2083656 L2.89668575,13.1380712 C2.63633623,12.8777217 2.63633623,12.4556117 2.89668575,12.1952621 L2.89668575,12.1952621 L7.07466667,8.01766667 L2.86192881,3.80473785 C2.62761424,3.57042328 2.60418278,3.20508273 2.79163444,2.94456296 L2.86192881,2.86192881 C3.12227834,2.60157928 3.54438833,2.60157928 3.80473785,2.86192881 L3.80473785,2.86192881 L8.01766667,7.07466667 Z" id="Combined-Shape" fill="#FFFFFF"></path>
                        <rect id="Rectangle" x="0" y="0" width="16" height="16"></rect>
                    </g>
                </g>
            </g>
        </g>
    </g>
</svg>