<?xml version="1.0" encoding="UTF-8"?>
<svg width="14px" height="14px" viewBox="0 0 14 14" version="1.1" xmlns="http://www.w3.org/2000/svg" xmlns:xlink="http://www.w3.org/1999/xlink">
    <!-- Generator: Sketch 55.2 (78181) - https://sketchapp.com -->
    <title>icons/ui/more-horisontal-small</title>
    <desc>Created with Sketch.</desc>
    <g id="icons/ui/more-horisontal-small" stroke="none" stroke-width="1" fill="none" fill-rule="evenodd">
        <path d="M7,8 C6.44771525,8 6,7.55228475 6,7 C6,6.44771525 6.44771525,6 7,6 C7.55228475,6 8,6.44771525 8,7 C8,7.55228475 7.55228475,8 7,8 Z M2,8 C1.44771525,8 1,7.55228475 1,7 C1,6.44771525 1.44771525,6 2,6 C2.55228475,6 3,6.44771525 3,7 C3,7.55228475 2.55228475,8 2,8 Z M12,8 C11.4477153,8 11,7.55228475 11,7 C11,6.44771525 11.4477153,6 12,6 C12.5522847,6 13,6.44771525 13,7 C13,7.55228475 12.5522847,8 12,8 Z" id="🎨-Icon-color" fill="#718290"></path>
        <rect id="Rectangle" x="0" y="0" width="14" height="14"></rect>
    </g>
</svg>