<?xml version="1.0" encoding="UTF-8"?>
<svg width="32px" height="32px" viewBox="0 0 32 32" version="1.1" xmlns="http://www.w3.org/2000/svg" xmlns:xlink="http://www.w3.org/1999/xlink">
    <!-- Generator: Sketch 55.2 (78181) - https://sketchapp.com -->
    <title>icons/main menu/admin/default</title>
    <desc>Created with Sketch.</desc>
    <g id="icons/main-menu/admin/default" stroke="none" stroke-width="1" fill="none" fill-rule="evenodd">
        <g id="icons/main-menu/administration">
            <g id="Setting" stroke-width="1" fill-rule="evenodd">
                <rect id="Rectangle" x="0" y="0" width="32" height="32"></rect>
                <path d="M24,23.8739825 L24,27 C24,27.5522847 23.5522847,28 23,28 C22.4477153,28 22,27.5522847 22,27 L22,23.8739825 C20.2747728,23.4299397 19,21.8638394 19,20 C19,17.790861 20.790861,16 23,16 C25.209139,16 27,17.790861 27,20 C27,21.8638394 25.7252272,23.4299397 24,23.8739825 Z M17,7.12601749 C18.7252272,7.57006028 20,9.13616057 20,11 C20,13.209139 18.209139,15 16,15 C13.790861,15 12,13.209139 12,11 C12,9.13616057 13.2747728,7.57006028 15,7.12601749 L15,5 C15,4.44771525 15.4477153,4 16,4 C16.5522847,4 17,4.44771525 17,5 L17,7.12601749 Z M10,23.8739825 L10,27 C10,27.5522847 9.55228475,28 9,28 C8.44771525,28 8,27.5522847 8,27 L8,23.8739825 C6.27477279,23.4299397 5,21.8638394 5,20 C5,17.790861 6.790861,16 9,16 C11.209139,16 13,17.790861 13,20 C13,21.8638394 11.7252272,23.4299397 10,23.8739825 Z M8,5 C8,4.44771525 8.44771525,4 9,4 C9.55228475,4 10,4.44771525 10,5 L10,13 C10,13.5522847 9.55228475,14 9,14 C8.44771525,14 8,13.5522847 8,13 L8,5 Z M15,18 C15,17.4477153 15.4477153,17 16,17 C16.5522847,17 17,17.4477153 17,18 L17,27 C17,27.5522847 16.5522847,28 16,28 C15.4477153,28 15,27.5522847 15,27 L15,18 Z M22,5 C22,4.44771525 22.4477153,4 23,4 C23.5522847,4 24,4.44771525 24,5 L24,13 C24,13.5522847 23.5522847,14 23,14 C22.4477153,14 22,13.5522847 22,13 L22,5 Z M9,22 C10.1045695,22 11,21.1045695 11,20 C11,18.8954305 10.1045695,18 9,18 C7.8954305,18 7,18.8954305 7,20 C7,21.1045695 7.8954305,22 9,22 Z M16,13 C17.1045695,13 18,12.1045695 18,11 C18,9.8954305 17.1045695,9 16,9 C14.8954305,9 14,9.8954305 14,11 C14,12.1045695 14.8954305,13 16,13 Z M23,22 C24.1045695,22 25,21.1045695 25,20 C25,18.8954305 24.1045695,18 23,18 C21.8954305,18 21,18.8954305 21,20 C21,21.1045695 21.8954305,22 23,22 Z" id="Combined-Shape" fill="#CCD6DD"></path>
            </g>
            <rect id="Rectangle" x="0" y="0" width="32" height="32"></rect>
        </g>
    </g>
</svg>