<?xml version="1.0" encoding="UTF-8"?>
<svg width="32px" height="32px" viewBox="0 0 32 32" version="1.1" xmlns="http://www.w3.org/2000/svg" xmlns:xlink="http://www.w3.org/1999/xlink">
    <!-- Generator: Sketch 55.2 (78181) - https://sketchapp.com -->
    <title>icons/main menu/advanced/active</title>
    <desc>Created with Sketch.</desc>
    <g id="icons/main-menu/advanced/active" stroke="none" stroke-width="1" fill="none" fill-rule="evenodd">
        <g id="icons/main-menu/Advanced">
            <g id="Key" stroke-width="1" fill-rule="evenodd">
                <rect id="Rectangle" x="0" y="0" width="32" height="32"></rect>
                <path d="M22,17 L12.9170416,17 C12.4409635,19.8377133 9.97299629,22 7,22 C3.6862915,22 1,19.3137085 1,16 C1,12.6862915 3.6862915,10 7,10 C9.97299629,10 12.4409635,12.1622867 12.9170416,15 L30,15 C30.5522847,15 31,15.4477153 31,16 C31,16.5522847 30.5522847,17 30,17 L29,17 L29,19 C29,19.5522847 28.5522847,20 28,20 C27.4477153,20 27,19.5522847 27,19 L27,17 L24,17 L24,21 C24,21.5522847 23.5522847,22 23,22 C22.4477153,22 22,21.5522847 22,21 L22,17 Z M7,20 C9.209139,20 11,18.209139 11,16 C11,13.790861 9.209139,12 7,12 C4.790861,12 3,13.790861 3,16 C3,18.209139 4.790861,20 7,20 Z" id="Combined-Shape" fill="#00BFE2"></path>
            </g>
            <rect id="Rectangle" x="0" y="0" width="32" height="32"></rect>
        </g>
    </g>
</svg>