<?xml version="1.0" encoding="UTF-8"?>
<svg width="32px" height="32px" viewBox="0 0 32 32" version="1.1" xmlns="http://www.w3.org/2000/svg" xmlns:xlink="http://www.w3.org/1999/xlink">
    <!-- Generator: Sketch 55.2 (78181) - https://sketchapp.com -->
    <title>icons/main menu/advertiser/hover</title>
    <desc>Created with Sketch.</desc>
    <g id="icons/main-menu/advertiser/hover" stroke="none" stroke-width="1" fill="none" fill-rule="evenodd">
        <g id="⚙️-build-block/icons/main-menu/advertiser">
            <g id="Group" stroke-width="1" fill-rule="evenodd" transform="translate(7.000000, 3.000000)" fill="#718290">
                <path d="M13,13.9998495 C13.1754642,13.9996565 13.3532275,14.0456555 13.5146469,14.1425071 C16.2974406,15.8121833 18.0001511,18.8194943 18.0001511,22.0647615 L18.0001511,23 C18.0001511,23.5522847 17.5524359,24 17.0001511,24 C16.4478664,24 16.0001511,23.5522847 16.0001511,23 L16.0001511,22.0647615 C16.0001511,19.673059 14.8198238,17.4463089 12.8651399,16.101533 C12.8454618,16.1354773 12.8237271,16.1683639 12.8,16.2 L11.0993152,18.4675798 L11.9844276,23.4242094 C12.0363152,23.71478 11.9571827,24.0134307 11.7682213,24.2401844 L9.76822128,26.6401844 C9.36842617,27.1199385 8.63157383,27.1199385 8.23177872,26.6401844 L6.23177872,24.2401844 C6.04281733,24.0134307 5.96368481,23.71478 6.01557242,23.4242094 L6.90068485,18.4675798 L5.2,16.2 C5.17629025,16.168387 5.15456992,16.1355253 5.13490316,16.1016074 C3.18028385,17.446391 2,19.6731031 2,22.0647615 L2,23 C2,23.5522847 1.55228475,24 1,24 C0.44771525,24 5.37347944e-14,23.5522847 5.37347944e-14,23 L5.37347944e-14,22.0647615 C5.37347944e-14,18.8194943 1.70271055,15.8121833 4.48550424,14.1425071 C4.64687727,14.0456833 4.82458483,13.9996829 5.00000001,13.9998493 C5.00008143,13.4476338 5.44776548,13 6,13 L12,13 C12.5522346,13 12.9999186,13.4476339 13,13.9998495 Z M9.16275267,19 L8.83724733,19 L8.06626985,23.3174739 L9,24.4379501 L9.93373015,23.3174739 L9.16275267,19 Z M9.7,17 L11,15.2666667 L11,15 L7,15 L7,15.2666667 L8.3,17 L9.7,17 Z M9,12 C5.6862915,12 3,9.3137085 3,6 C3,2.6862915 5.6862915,0 9,0 C12.3137085,0 15,2.6862915 15,6 C15,9.3137085 12.3137085,12 9,12 Z M9,10 C11.209139,10 13,8.209139 13,6 C13,3.790861 11.209139,2 9,2 C6.790861,2 5,3.790861 5,6 C5,8.209139 6.790861,10 9,10 Z" id="Combined-Shape"></path>
            </g>
            <rect id="Rectangle" x="0" y="0" width="32" height="32"></rect>
        </g>
    </g>
</svg>