<?xml version="1.0" encoding="UTF-8"?>
<svg width="32px" height="32px" viewBox="0 0 32 32" version="1.1" xmlns="http://www.w3.org/2000/svg" xmlns:xlink="http://www.w3.org/1999/xlink">
    <!-- Generator: Sketch 55.2 (78181) - https://sketchapp.com -->
    <title>icons/main menu/invoices/hover</title>
    <desc>Created with Sketch.</desc>
    <g id="icons/main-menu/invoices/hover" stroke="none" stroke-width="1" fill="none" fill-rule="evenodd">
        <g id="⚙️-build-block/icons/main-menu/invoices">
            <g id="Group" stroke-width="1" fill-rule="evenodd" transform="translate(5.000000, 5.000000)" fill="#718290">
                <path d="M18,16 L18,18.5901474 C18,20.2470017 16.6568542,21.5901474 15,21.5901474 C14.8145193,21.5901474 14.6294382,21.572946 14.4471344,21.538764 L2.44713439,19.288764 C1.02821567,19.0227167 0,17.7837926 0,16.3401474 L0,1.97389668 C0,1.46393095 0.348006122,1.10575415 0.761680379,1.00247543 C1.3110688,0.387289392 2.11030626,-1.39888101e-14 3,-1.39888101e-14 L19,-1.39888101e-14 C20.6568542,-1.39888101e-14 22,1.34314575 22,3 L22,13 C22,14.6568542 20.6568542,16 19,16 L18,16 Z M18,14 L19,14 C19.5522847,14 20,13.5522847 20,13 L20,3 C20,2.44771525 19.5522847,2 19,2 L3,2 C2.80195165,2 2.61735018,2.05757292 2.46201911,2.15689523 L3.6948081,3.61962748 L15.5249567,5.7221731 C16.9568607,5.97666216 18,7.22154309 18,8.67588609 L18,14 Z M2,4.71213993 L2,16.3401474 C2,16.8213625 2.34273856,17.2343372 2.81571146,17.3230196 L14.8157115,19.5730196 C14.8764794,19.5844136 14.9381731,19.5901474 15,19.5901474 C15.5522847,19.5901474 16,19.1424322 16,18.5901474 L16,8.67588609 C16,8.19110509 15.6522869,7.77614478 15.1749856,7.69131509 L2.98844634,5.52542898 C2.75816376,5.48450137 2.54951238,5.3641489 2.39878208,5.18530396 L2,4.71213993 Z M13,13 C13.5522847,13 14,13.4477153 14,14 C14,14.5522847 13.5522847,15 13,15 C12.4477153,15 12,14.5522847 12,14 C12,13.4477153 12.4477153,13 13,13 Z" id="Combined-Shape"></path>
            </g>
            <rect id="Rectangle" x="0" y="0" width="32" height="32"></rect>
        </g>
    </g>
</svg>