<?xml version="1.0" encoding="UTF-8"?>
<svg width="32px" height="32px" viewBox="0 0 32 32" version="1.1" xmlns="http://www.w3.org/2000/svg" xmlns:xlink="http://www.w3.org/1999/xlink">
    <!-- Generator: Sketch 55.2 (78181) - https://sketchapp.com -->
    <title>icons/main menu/offersync/default</title>
    <desc>Created with Sketch.</desc>
    <g id="icons/main-menu/offersync/default" stroke="none" stroke-width="1" fill="none" fill-rule="evenodd">
        <g id="icons/main-menu/offer-sync">
            <g id="Group" stroke-width="1" fill-rule="evenodd" transform="translate(4.000000, 5.000000)" fill="#CCD6DD">
                <path d="M13,20.5857864 L15.2928932,18.2928932 C15.6834175,17.9023689 16.3165825,17.9023689 16.7071068,18.2928932 C17.0976311,18.6834175 17.0976311,19.3165825 16.7071068,19.7071068 L12.7071068,23.7071068 C12.3165825,24.0976311 11.6834175,24.0976311 11.2928932,23.7071068 L7.29289322,19.7071068 C6.90236893,19.3165825 6.90236893,18.6834175 7.29289322,18.2928932 C7.68341751,17.9023689 8.31658249,17.9023689 8.70710678,18.2928932 L11,20.5857864 L11,16.0598366 C11,15.5075519 11.4477153,15.0598366 12,15.0598366 C12.5522847,15.0598366 13,15.5075519 13,16.0598366 L13,20.5857864 Z M3,0 L21,0 C22.6568542,0 24,1.34314575 24,3 L24,11 C24,12.6568542 22.6568542,14 21,14 L3,14 C1.34314575,14 0,12.6568542 0,11 L0,3 C0,1.34314575 1.34314575,0 3,0 Z M3,2 C2.44771525,2 2,2.44771525 2,3 L2,11 C2,11.5522847 2.44771525,12 3,12 L21,12 C21.5522847,12 22,11.5522847 22,11 L22,3 C22,2.44771525 21.5522847,2 21,2 L3,2 Z M7,10 C5.34314575,10 4,8.65685425 4,7 C4,5.34314575 5.34314575,4 7,4 C8.65685425,4 10,5.34314575 10,7 C10,8.65685425 8.65685425,10 7,10 Z M7,8 C7.55228475,8 8,7.55228475 8,7 C8,6.44771525 7.55228475,6 7,6 C6.44771525,6 6,6.44771525 6,7 C6,7.55228475 6.44771525,8 7,8 Z M13,4 L18,4 C18.5522847,4 19,4.44771525 19,5 C19,5.55228475 18.5522847,6 18,6 L13,6 C12.4477153,6 12,5.55228475 12,5 C12,4.44771525 12.4477153,4 13,4 Z M13,8 L18,8 C18.5522847,8 19,8.44771525 19,9 C19,9.55228475 18.5522847,10 18,10 L13,10 C12.4477153,10 12,9.55228475 12,9 C12,8.44771525 12.4477153,8 13,8 Z" id="Combined-Shape"></path>
            </g>
            <rect id="Rectangle" x="0" y="0" width="32" height="32"></rect>
        </g>
    </g>
</svg>