<?xml version="1.0" encoding="UTF-8"?>
<svg width="32px" height="32px" viewBox="0 0 32 32" version="1.1" xmlns="http://www.w3.org/2000/svg" xmlns:xlink="http://www.w3.org/1999/xlink">
    <!-- Generator: Sketch 55.2 (78181) - https://sketchapp.com -->
    <title>icons/main menu/offers/hover</title>
    <desc>Created with Sketch.</desc>
    <g id="icons/main-menu/offers/hover" stroke="none" stroke-width="1" fill="none" fill-rule="evenodd">
        <g id="⚙️-build-block/icons/main-menu/offers">
            <g id="Group" stroke-width="1" fill-rule="evenodd" transform="translate(4.000000, 5.000000)" fill="#718290">
                <path d="M20.8292943,18 C20.9398458,18.3127789 21,18.6493646 21,19 C21,20.6568542 19.6568542,22 18,22 L6,22 C4.34314575,22 3,20.6568542 3,19 C3,18.6493646 3.06015422,18.3127789 3.17070571,18 L3,18 C1.34314575,18 0,16.6568542 0,15 L0,3 C0,1.34314575 1.34314575,0 3,0 L21,0 C22.6568542,0 24,1.34314575 24,3 L24,15 C24,16.6568542 22.6568542,18 21,18 L20.8292943,18 Z M18,18 L6,18 C5.44771525,18 5,18.4477153 5,19 C5,19.5522847 5.44771525,20 6,20 L18,20 C18.5522847,20 19,19.5522847 19,19 C19,18.4477153 18.5522847,18 18,18 Z M18,16 L21,16 C21.5522847,16 22,15.5522847 22,15 L22,3 C22,2.44771525 21.5522847,2 21,2 L3,2 C2.44771525,2 2,2.44771525 2,3 L2,15 C2,15.5522847 2.44771525,16 3,16 L6,16 L18,16 Z M7,10 C5.34314575,10 4,8.65685425 4,7 C4,5.34314575 5.34314575,4 7,4 C8.65685425,4 10,5.34314575 10,7 C10,8.65685425 8.65685425,10 7,10 Z M7,8 C7.55228475,8 8,7.55228475 8,7 C8,6.44771525 7.55228475,6 7,6 C6.44771525,6 6,6.44771525 6,7 C6,7.55228475 6.44771525,8 7,8 Z M13,4 L18,4 C18.5522847,4 19,4.44771525 19,5 C19,5.55228475 18.5522847,6 18,6 L13,6 C12.4477153,6 12,5.55228475 12,5 C12,4.44771525 12.4477153,4 13,4 Z M15.5,5 L18,5 L15.5,5 Z M13,8 L18,8 C18.5522847,8 19,8.44771525 19,9 C19,9.55228475 18.5522847,10 18,10 L13,10 C12.4477153,10 12,9.55228475 12,9 C12,8.44771525 12.4477153,8 13,8 Z M15.5,9 L18,9 L15.5,9 Z M5,12 L18,12 C18.5522847,12 19,12.4477153 19,13 C19,13.5522847 18.5522847,14 18,14 L5,14 C4.44771525,14 4,13.5522847 4,13 C4,12.4477153 4.44771525,12 5,12 Z M11.5,13 L18,13 L11.5,13 Z" id="Combined-Shape"></path>
            </g>
            <rect id="Rectangle" x="0" y="0" width="32" height="32"></rect>
        </g>
    </g>
</svg>