<?xml version="1.0" encoding="UTF-8"?>
<svg width="32px" height="32px" viewBox="0 0 32 32" version="1.1" xmlns="http://www.w3.org/2000/svg" xmlns:xlink="http://www.w3.org/1999/xlink">
    <!-- Generator: Sketch 55.2 (78181) - https://sketchapp.com -->
    <title>icons/main menu/partners/hover</title>
    <desc>Created with Sketch.</desc>
    <g id="icons/main-menu/partners/hover" stroke="none" stroke-width="1" fill="none" fill-rule="evenodd">
        <g id="⚙️-build-block/icons/main-menu/affilates">
            <g id="Group" stroke-width="1" fill-rule="evenodd" transform="translate(7.000000, 4.000000)" fill="#718290">
                <path d="M13.9217372,16.9880435 C13.872693,17.1046504 13.8008848,17.2133287 13.7071068,17.3071068 L11.3071068,19.7071068 C11.1195704,19.8946432 10.8652165,20 10.6,20 L7.4,20 C7.13478351,20 6.8804296,19.8946432 6.69289322,19.7071068 L4.29289322,17.3071068 C4.19914403,17.2133576 4.12735123,17.1047173 4.07830807,16.9881511 C2.76311832,18.3252084 2,20.1416615 2,22.0647615 L2,23 C2,23.5522847 1.55228475,24 1,24 C0.44771525,24 5.37347944e-14,23.5522847 5.37347944e-14,23 L5.37347944e-14,22.0647615 C5.37347944e-14,18.8194943 1.70271055,15.8121833 4.48550424,14.1425071 C4.95908451,13.8583589 5.57334477,14.011924 5.85749293,14.4855042 C5.85899872,14.4880139 5.86049222,14.4905275 5.86197344,14.493045 C6.47814469,14.1740313 7.17055607,14 7.88679623,14 L10.1132038,14 C10.8294888,14 11.5219421,14.1740531 12.1381424,14.493105 C12.1396352,14.4905674 12.1411405,14.4880338 12.1426582,14.4855042 C12.4268064,14.011924 13.0410666,13.8583589 13.5146469,14.1425071 C16.2974406,15.8121833 18.0001511,18.8194943 18.0001511,22.0647615 L18.0001511,23 C18.0001511,23.5522847 17.5524359,24 17.0001511,24 C16.4478664,24 16.0001511,23.5522847 16.0001511,23 L16.0001511,22.0647615 C16.0001511,20.1416099 15.2369919,18.3251109 13.9217372,16.9880435 Z M9,12 C5.6862915,12 3,9.3137085 3,6 C3,2.6862915 5.6862915,0 9,0 C12.3137085,0 15,2.6862915 15,6 C15,9.3137085 12.3137085,12 9,12 Z M9,10 C11.209139,10 13,8.209139 13,6 C13,3.790861 11.209139,2 9,2 C6.790861,2 5,3.790861 5,6 C5,8.209139 6.790861,10 9,10 Z M10.1132038,16 L7.88679623,16 C7.32225594,16 6.78483422,16.198058 6.3606541,16.5464405 L7.81421356,18 L10.1857864,18 L11.6393459,16.5464405 C11.2151658,16.198058 10.6777441,16 10.1132038,16 Z" id="Combined-Shape"></path>
            </g>
            <rect id="Rectangle" x="0" y="0" width="32" height="32"></rect>
        </g>
    </g>
</svg>