<?xml version="1.0" encoding="UTF-8"?>
<svg width="32px" height="32px" viewBox="0 0 32 32" version="1.1" xmlns="http://www.w3.org/2000/svg" xmlns:xlink="http://www.w3.org/1999/xlink">
    <!-- Generator: Sketch 55.2 (78181) - https://sketchapp.com -->
    <title>icons/main menu/statistics/hover</title>
    <desc>Created with Sketch.</desc>
    <g id="icons/main-menu/statistics/hover" stroke="none" stroke-width="1" fill="none" fill-rule="evenodd">
        <g id="⚙️-build-block/icons/main-menu/statistics">
            <g id="Calendar-5" stroke-width="1" fill-rule="evenodd">
                <rect id="Rectangle" x="0" y="0" width="32" height="32"></rect>
                <path d="M9.43938102,9.83893067 L15.801364,14.6020705 L20.5855362,8.25415109 C19.2426099,7.45742464 17.6747236,7 16,7 C13.4130898,7 11.0810968,8.09143021 9.43938102,9.83893067 Z M8.23959347,11.4390906 C7.45185518,12.7765426 7,14.3355031 7,16 C7,20.9705627 11.0294373,25 16,25 C16.6584719,25 17.3004276,24.9292856 17.9186872,24.7950367 L15.1521581,16.6144442 L8.23959347,11.4390906 Z M19.8133601,24.1545569 C22.8775909,22.7191448 25,19.60743 25,16 C25,15.7524505 24.9900056,15.5072354 24.9703983,15.2647361 L17.3133665,16.7621062 L19.8133601,24.1545569 Z M26.8968013,14.4870033 C26.9648415,14.9816059 27,15.4866971 27,16 C27,22.0751322 22.0751322,27 16,27 C9.92486775,27 5,22.0751322 5,16 C5,9.92486775 9.92486775,5 16,5 C21.1428984,5 25.4614649,8.52938466 26.6657392,13.2981937 C26.8232396,13.4384902 26.9378068,13.6295562 26.9814106,13.8525313 C27.0251724,14.076314 26.9906139,14.29725 26.8968013,14.4870033 Z M22.1818877,9.45900118 L18.3693312,14.5177242 L24.5884623,13.3015426 C24.1229989,11.8186222 23.2840678,10.5010354 22.1818877,9.45900118 Z" id="Combined-Shape" fill="#718290"></path>
            </g>
            <rect id="Rectangle" x="0" y="0" width="32" height="32"></rect>
        </g>
    </g>
</svg>